<svg width="1083" height="871" viewBox="0 0 1083 871" fill="none" xmlns="http://www.w3.org/2000/svg">
<path d="M436.69 687.278L435.761 686.848C427.486 682.915 419.914 672.812 413.139 666.288C402.494 656.051 391.961 645.581 381.401 635.245L325.247 579.427C314.39 568.491 300.02 555.542 291.438 543.709C230.542 459.789 246.957 351.823 324.319 284.213C356.94 255.705 386.865 219.437 420.296 191.218C424.563 187.381 428.821 183.186 432.909 179.157L522.981 90.4123C541.113 72.6009 559.382 52.3043 579.716 37.1129C592.245 29.0713 610.824 17.7419 624.784 13.3998C648.929 5.89204 684.449 -2.21377 709.688 0.555235C725.594 2.30122 758.597 10.8956 772.422 17.5809C812.74 37.0748 842.984 75.0261 875.145 105.553C908.427 136.782 941.116 168.614 973.206 201.036C985.605 213.457 997.853 224.574 1009.47 237.921C1036.18 268.611 1058.06 307.93 1069.83 346.653C1086.31 400.871 1085.78 461.237 1072.44 515.957C1069.45 527.866 1056.5 560.4 1050.97 571.251C1039.63 593.533 1025.51 614.311 1008.93 633.091C991.316 652.705 969.855 668.661 955.012 690.759C951.675 695.729 946.841 701.257 944.588 707.012C934.763 732.061 932.824 766.797 946.991 790.59C954.135 802.585 965.036 813.5 958.27 828.842C955.568 834.956 943.675 842.772 936.938 844.48C917.795 849.31 890.381 847.319 871.41 842.016C854.691 837.343 838.549 829.993 820.853 830.593C803.108 831.2 790.545 844.283 775.088 851.301C766.404 855.24 752.951 861.728 743.81 864.086C712.39 872.177 676.257 873.491 644.716 865.364C635.255 862.922 613.284 853.249 604.614 848.328C583.294 836.234 565.34 820.688 548.921 802.762C546.477 800.093 542.058 794.289 539.302 795.461C534.871 797.346 533.051 800.827 529.657 803.249C531.63 797.255 558.742 772.142 565.051 765.908C590.252 740.999 615.363 715.808 640.823 691.161C643.276 688.789 656.686 676.78 658.932 676.215C647.596 689.65 644.83 700.071 645.949 717.489C647.81 746.534 674.945 757.45 701.018 754.844C728.225 752.133 751.047 725.446 769.128 707.28L815.513 661.382C840.738 636.424 866.269 611.247 891.18 586.515C914.922 562.948 936.688 540.045 948.688 508.608C950.834 503.001 954.883 497.849 956.516 491.947C963.531 470.503 965.278 435.984 962.754 413.411C959.674 386.25 950.449 360.128 935.754 336.991C913.731 302.51 870.597 264.298 840.845 235.707C821.98 217.577 803.557 199.046 784.706 180.882C774.603 171.042 764.579 161.124 754.633 151.125C733.28 129.835 718.493 115.253 685.911 118.659C654.041 121.991 637.665 143.29 616.737 164.13L576.157 204.128C565.528 214.604 554.839 225.02 544.09 235.376C518.859 259.862 497.944 281.881 492.035 317.433C490.69 325.522 489.326 334.882 486.092 342.348C440.177 327.025 393.56 348.155 377.202 393.648C362.601 434.257 376.752 468.086 407.084 496.335C410.808 499.823 415.035 503.989 418.869 507.471C443.94 539.989 513.561 576.207 495.585 624.831C487.277 647.304 456.667 673.151 437.253 687.01C437.065 687.102 436.877 687.194 436.69 687.278Z" fill="#D4A39B"/>
<path d="M529.657 803.249C524.745 810.768 495.761 834.949 486.956 840.795C437.499 873.632 376.449 879.541 321.741 856.885C284 841.254 274.509 830.925 246.557 803.623L129.966 688.916C111.958 671.252 93.0015 653.658 76.3445 634.849C63.8441 620.461 52.4895 605.133 42.3818 589.008C26.8763 564.382 12.6505 524.691 6.5433 496.579C-7.70612 429.619 1.47199 359.85 32.5693 298.74C36.7658 290.388 40.5637 282.409 45.4518 274.334C63.0756 245.217 85.4298 224.935 108.969 201.054C125.538 184.042 142.326 167.24 159.326 150.651C168.759 141.558 179.049 132.161 188.365 122.972L246.438 66.4388C249.532 63.4262 253.525 58.1 256.285 55.5986C263.514 49.0474 273.385 40.0316 281.201 34.5274C302.33 19.6262 326.37 9.26188 351.78 4.09806C401.05 -6.07143 452.38 3.9526 494.062 31.8855C498.685 34.9419 515.277 46.318 516.212 50.9502C508.538 65.2061 475.987 89.3879 464.781 103.095C462.354 106.063 437.466 131.22 434.077 130.85C432.137 130.637 416.839 123.161 412.974 121.584C391.665 112.891 363.124 117.955 345.724 132.592C332.245 144.604 317.772 159.363 304.332 172.597L246.494 229.528C218.3 257.7 183.592 287.872 159.179 318.384C120.013 367.336 103.967 439.563 129.097 498.176C131.947 505.483 134.208 513.955 138.328 520.676C147.586 535.781 157.423 551.285 169.56 564.311C200.848 597.882 234.712 629.357 267.448 661.579L319.947 713.034C332.958 725.552 345.768 739.714 361.632 748.886C373.18 755.557 405.065 757.626 416.448 749.895C443.462 731.376 465.52 705.755 487.81 682.054C496.494 672.819 507.114 664.255 515.851 655.515C550.446 620.898 585.238 586.445 620.245 552.182L658.54 514.393C685.426 487.75 709.203 469.886 711.086 429.069C714.764 349.212 623.954 305.241 565.158 363.182C559.715 368.546 547.62 386.271 540.587 385.977C536.067 383.15 527.253 367.892 525.378 362.526C515.483 334.206 524.889 302.164 543.34 279.363C550.637 270.346 559.671 262.708 567.648 254.709C587.075 235.226 606.629 215.926 627.406 197.909C635.269 191.1 638.777 183.757 648.844 179.893C658.234 185.218 672.528 200.857 681.191 209.088C704.569 231.239 727.498 253.848 749.963 276.902C760.073 287.088 771.231 297.508 780.849 308.124C793.946 322.769 804.427 339.515 811.849 357.644C825.915 391.118 827.969 409.842 826.464 446.275C824.882 484.635 807.906 522.853 783.537 552.351C776.664 560.675 763.324 573.306 755.346 581.107L719.206 616.768C700.633 634.899 677.754 659.525 658.932 676.215C656.686 676.78 643.276 688.789 640.823 691.161C615.363 715.808 590.252 740.999 565.051 765.908C558.742 772.142 531.63 797.255 529.657 803.249Z" fill="#F6BD60"/>
</svg>
